<?xml version="1.0" encoding="UTF-8"?>
<svg width="62px" height="62px" viewBox="0 0 62 62" version="1.1" xmlns="http://www.w3.org/2000/svg" xmlns:xlink="http://www.w3.org/1999/xlink">
    <!-- Generator: Sketch 50.2 (55047) - http://www.bohemiancoding.com/sketch -->
    <title>Icons/collaborate</title>
    <desc>Created with Sketch.</desc>
    <defs></defs>
    <g id="Page-1" stroke="none" stroke-width="1" fill="none" fill-rule="evenodd">
        <g id="Kayako-HappyFox-Alternative-Landing-Page---1360" transform="translate(-500.000000, -8628.000000)">
            <g id="Section:-Why" transform="translate(100.000000, 8311.000000)">
                <g id="Workflows" transform="translate(400.000000, 314.000000)">
                    <g id="Icons/Gray-Box/collaborate" transform="translate(0.000000, 3.000000)">
                        <g id="icon--collaborate">
                            <rect id="Rectangle-243-Copy-3" fill="#EBEEF0" fill-rule="nonzero" x="0" y="0" width="62" height="62" rx="4"></rect>
                            <polygon id="Path-2" fill="#FFFFFF" fill-rule="nonzero" points="35.5092414 45.516937 38.1474659 45.1991085 39.6514517 43.0438076 39.6514517 42.0537867 41.4919456 42.0537867 42.79073 40.4509087 43.1148767 38.2513811 45.110027 38.2513811 46.1173542 36.6627876 46.1173542 34.2660249 36.1539637 24.0880933 32.7638837 24.4072955 27.472601 22.3594025 24.4673765 24.0880933 22.029134 25.1720619 18.2698565 24.4072955 30.3300365 12.7910315 25.7606669 11.5444403 19.3689335 12.5042441 15.7019553 15.617426 12.7725483 19.8277619 12.7725483 24.4072955 12.7725483 28.5306886 14.9385624 31.4077653 17.4726753 28.9909495 19.3689335 28.9909495 20.7858391 30.9344562 20.7858391 32.3153761 23.618277 32.9960841 24.4673765 34.2660249 24.4673765 35.6922704 27.0880201 36.6627876 27.8882229 38.2513811 27.8882229 39.4114417 30.3300365 39.9292523 31.7354047 42.0537867 30.3300365 44.4258263 28.8936271 45.516937 31.7354047 48.4334332 33.818734 49.0572782 35.5092414 47.5379093"></polygon>
                            <g id="Group-7" transform="translate(12.400000, 11.514286)">
                                <path d="M2.19609478,19.771216 C-1.16988194,14.8478256 -0.66614014,8.07401397 3.7044334,3.70344042 C7.60590642,-0.198032592 13.5526578,-0.954366983 18.2595403,1.31174942" id="Stroke-95" stroke="#F37070"></path>
                                <path d="M29.63429,26.0578849 C30.6215661,27.0451611 32.2237248,27.0451611 33.211001,26.0578849 L33.2600762,26.0088097 C34.2285884,25.0402976 34.2502391,23.4771103 33.3077079,22.4826171 L24.0166306,12.6632605" id="Stroke-99" stroke="#F37070"></path>
                                <path d="M16.362209,34.2454934 L18.9040122,36.7872965 C19.8927318,37.776016 21.4934472,37.776016 22.4807233,36.7872965 C23.4679995,35.8000203 23.4679995,34.199305 22.4807233,33.2105854 L18.8852482,29.6165536" id="Stroke-101" stroke="#F37070"></path>
                                <path d="M22.4810121,33.2111628 C23.4682882,34.1984389 25.0704469,34.1984389 26.0577231,33.2111628 C27.0449994,32.2238866 27.0449994,30.6217278 26.0577231,29.6344517" id="Stroke-103" stroke="#F37070"></path>
                                <path d="M22.8513849,26.4282578 L26.0571457,29.6340187 C27.0458653,30.6227382 28.6465807,30.6227382 29.6338569,29.6340187 C30.6225765,28.6467424 30.6225765,27.0460271 29.6338569,26.0573075 L26.4280961,22.8515466" id="Stroke-105" stroke="#F37070" stroke-linecap="square"></path>
                                <path d="M18.2907174,28.7404182 C19.2779936,29.7276944 19.2779936,31.3298531 18.2907174,32.3171293 L15.6089057,34.9989409 C14.6201862,35.9876605 13.0194709,35.9876605 12.0321947,34.9989409 C11.0434751,34.0116648 11.0434751,32.4109494 12.0321947,31.4222298 L14.7140063,28.7404182 C15.7012825,27.753142 17.3034412,27.753142 18.2907174,28.7404182 Z" id="Stroke-107" stroke="#444444" stroke-linecap="square"></path>
                                <path d="M11.1375839,21.5871403 C12.12486,22.5744165 12.12486,24.1765752 11.1375839,25.1638514 L8.45577224,27.8456631 C7.46705266,28.8343826 5.86633732,28.8343826 4.87906113,27.8456631 C3.89034155,26.8583869 3.89034155,25.2576715 4.87906113,24.2689519 L7.56087277,21.5871403 C8.54814896,20.5998641 10.1503077,20.5998641 11.1375839,21.5871403 Z" id="Stroke-109" stroke="#444444" stroke-linecap="square"></path>
                                <path d="M7.56087277,18.0105735 C8.54814896,18.9978497 8.54814896,20.6000085 7.56087277,21.5872846 L4.87906113,24.2690963 C3.89034155,25.2578159 2.28962621,25.2578159 1.30235002,24.2690963 C0.313630443,23.2818201 0.313630443,21.6811048 1.30235002,20.6923852 L3.98416166,18.0105735 C4.97143785,17.0232974 6.57359658,17.0232974 7.56087277,18.0105735 Z" id="Stroke-111" stroke="#444444" stroke-linecap="square"></path>
                                <path d="M14.7141506,25.1637071 C15.7014268,26.1509833 15.7014268,27.753142 14.7141506,28.7404182 L12.032339,31.4222298 C11.0436194,32.4109494 9.44290407,32.4109494 8.4556279,31.4222298 C7.46690833,30.4349536 7.46690833,28.8342383 8.4556279,27.8455187 L11.1374395,25.1637071 C12.1247157,24.1764309 13.7268745,24.1764309 14.7141506,25.1637071 Z" id="Stroke-113" stroke="#444444" stroke-linecap="square"></path>
                                <path d="M32.2212292,20.1294271 C37.1590536,15.1916027 37.7524715,8.64227513 32.8146472,3.70445079 C27.8753794,-1.23481693 19.8689159,-1.23481693 14.9310916,3.70445079 L5.98931383,12.6462286 C5.98931383,12.6462286 10.2920482,15.495473 14.9310916,10.857873 C14.9310916,10.857873 22.918791,15.3092762 27.3326662,10.8939576" id="Stroke-97" stroke="#444444"></path>
                            </g>
                        </g>
                    </g>
                </g>
            </g>
        </g>
    </g>
</svg>