<?xml version="1.0" encoding="UTF-8"?>
<svg width="62px" height="62px" viewBox="0 0 62 62" version="1.1" xmlns="http://www.w3.org/2000/svg" xmlns:xlink="http://www.w3.org/1999/xlink">
    <!-- Generator: Sketch 50.2 (55047) - http://www.bohemiancoding.com/sketch -->
    <title>Icons/integrations</title>
    <desc>Created with Sketch.</desc>
    <defs></defs>
    <g id="Page-1" stroke="none" stroke-width="1" fill="none" fill-rule="evenodd">
        <g id="Kayako-HappyFox-Alternative-Landing-Page---1360" transform="translate(-900.000000, -8628.000000)">
            <g id="Section:-Why" transform="translate(100.000000, 8311.000000)">
                <g id="Integrations" transform="translate(800.000000, 314.000000)">
                    <g id="Icons/Gray-Box/integrations" transform="translate(0.000000, 3.000000)">
                        <g id="icon--integrations">
                            <rect id="Rectangle-243-Copy-5" fill="#EBEEF0" fill-rule="nonzero" x="0" y="0" width="62" height="62" rx="4"></rect>
                            <g id="Group-9" transform="translate(11.514286, 8.857143)">
                                <path d="M15.9111687,29.0096534 L15.9111687,23.9180794 L12.728935,23.9180794 C12.728935,25.6753089 11.3039307,27.1003131 9.54670119,27.1003131 C7.78947175,27.1003131 6.36446748,25.6753089 6.36446748,23.9180794 L3.18223374,23.9180794 L3.18223374,29.0096534 C1.42500427,29.0096534 0,30.4346577 0,32.1918871 C0,33.9491166 1.42500427,35.3741209 3.18223374,35.3741209 L3.18223374,40.4656948 L6.36446748,40.4656948 C6.36446748,38.7084654 7.78947175,37.2834611 9.54670119,37.2834611 C11.3039307,37.2834611 12.728935,38.7084654 12.728935,40.4656948 L15.9111687,40.4656948 L15.9111687,35.3741209 C17.6683982,35.3741209 19.0934025,33.9491166 19.0934025,32.1918871 C19.0934025,30.4346577 17.6683982,29.0096534 15.9111687,29.0096534 Z" id="Stroke-107" stroke="#F37070" fill="#FFFFFF" fill-rule="nonzero"></path>
                                <path d="M38.1970702,24.9959328 L33.1054962,24.9959328 C33.1054962,23.5900219 31.9656201,22.4501458 30.5597092,22.4501458 C29.1537983,22.4501458 28.0139222,23.5900219 28.0139222,24.9959328 L22.9223482,24.9959328 L22.9223482,28.8146133 C24.6795777,28.8146133 26.1045819,30.2396176 26.1045819,31.996847 C26.1045819,33.7540765 24.6795777,35.1790808 22.9223482,35.1790808 L22.9223482,39.634208 L27.3774754,39.634208 C27.3774754,37.8769785 28.8024797,36.4519743 30.5597092,36.4519743 C32.3169386,36.4519743 33.7419429,37.8769785 33.7419429,39.634208 L38.1970702,39.634208 L38.1970702,34.5426339 C39.602981,34.5426339 40.7428571,33.4027578 40.7428571,31.996847 C40.7428571,30.5909361 39.602981,29.45106 38.1970702,29.45106 L38.1970702,24.9959328 Z" id="Stroke-109" stroke="#444444"></path>
                                <path d="M16.578411,5.87173422 L11.486837,5.87173422 C11.486837,4.46582336 10.3469609,3.32594723 8.94105002,3.32594723 C7.53513914,3.32594723 6.39526301,4.46582336 6.39526301,5.87173422 L1.30368903,5.87173422 L1.30368903,9.69041468 C3.0609185,9.69041468 4.48592277,11.115419 4.48592277,12.8726485 C4.48592277,14.6298779 3.0609185,16.0548822 1.30368903,16.0548822 L1.30368903,20.5100094 L5.75881626,20.5100094 C5.75881626,18.7527799 7.18382053,17.3277757 8.94105002,17.3277757 C10.6982794,17.3277757 12.1232837,18.7527799 12.1232837,20.5100094 L16.578411,20.5100094 L16.578411,15.4184354 C17.9843218,15.4184354 19.1241979,14.2785593 19.1241979,12.8726485 C19.1241979,11.4667376 17.9843218,10.3268614 16.578411,10.3268614 L16.578411,5.87173422 Z" id="Stroke-109" stroke="#444444" transform="translate(10.213943, 11.917978) rotate(90.000000) translate(-10.213943, -11.917978) "></path>
                                <path d="M38.1970701,3.37727383 L33.1054961,3.37727383 C33.1054961,1.97136296 31.96562,0.831486832 30.5597092,0.831486832 C29.1537982,0.831486832 28.0139221,1.97136296 28.0139221,3.37727383 L22.9223481,3.37727383 L22.9223481,7.19595431 C24.6795776,7.19595431 26.1045819,8.62095858 26.1045819,10.378188 C26.1045819,12.1354175 24.6795776,13.5604218 22.9223481,13.5604218 L22.9223481,18.0155491 L27.3774754,18.0155491 C27.3774754,16.2583196 28.8024797,14.8333153 30.5597092,14.8333153 C32.3169386,14.8333153 33.7419429,16.2583196 33.7419429,18.0155491 L38.1970701,18.0155491 L38.1970701,12.9239751 C39.602981,12.9239751 40.7428571,11.7840989 40.7428571,10.378188 C40.7428571,8.97227716 39.602981,7.83240106 38.1970701,7.83240106 L38.1970701,3.37727383 Z" id="Stroke-109" stroke="#F37070" fill="#FFFFFF" fill-rule="nonzero" transform="translate(31.832603, 9.423518) scale(-1, 1) rotate(-90.000000) translate(-31.832603, -9.423518) "></path>
                            </g>
                        </g>
                    </g>
                </g>
            </g>
        </g>
    </g>
</svg>