<?xml version="1.0" encoding="UTF-8"?>
<svg width="62px" height="62px" viewBox="0 0 62 62" version="1.1" xmlns="http://www.w3.org/2000/svg" xmlns:xlink="http://www.w3.org/1999/xlink">
    <!-- Generator: Sketch 50.2 (55047) - http://www.bohemiancoding.com/sketch -->
    <title>Icons/unified-inbox</title>
    <desc>Created with Sketch.</desc>
    <defs></defs>
    <g id="Page-1" stroke="none" stroke-width="1" fill="none" fill-rule="evenodd">
        <g id="Kayako-HappyFox-Alternative-Landing-Page---1360" transform="translate(-100.000000, -8468.000000)">
            <g id="Section:-Why" transform="translate(100.000000, 8311.000000)">
                <g id="Live-Chat" transform="translate(0.000000, 154.000000)">
                    <g id="Icons/Gray-Box/unified-inbox" transform="translate(0.000000, 3.000000)">
                        <g id="icon--unified">
                            <rect id="Rectangle-path" fill="#EBEEF0" fill-rule="nonzero" x="0" y="0" width="62" height="62" rx="4"></rect>
                            <polyline id="Shape" stroke="#40364D" points="18.6 24.0914286 11.5142857 29.2285714 11.5142857 50.4857143 50.4857143 50.4857143 50.4857143 29.2285714 43.3114286 24.0028571"></polyline>
                            <polyline id="Shape" fill="#FFFFFF" fill-rule="nonzero" points="17.7142857 10.6285714 44.2857143 10.6285714 44.2857143 31.8857143 31 39.8571429 17.7142857 31.8857143"></polyline>
                            <path d="M18.6,33.1257143 L18.6,11.5142857 L43.4,11.5142857 L43.4,33.1257143 M11.5142857,29.2285714 L50.4857143,50.4857143 M50.4857143,29.2285714 L31,39.8571429" id="Shape" stroke="#40364D"></path>
                            <path d="M27.4571429,20.3714286 L23.9142857,23.9142857 L27.4571429,27.4571429 M34.5428571,20.3714286 L38.0857143,23.9142857 L34.5428571,27.4571429" id="Shape" stroke="#F37070" stroke-linecap="square"></path>
                        </g>
                    </g>
                </g>
            </g>
        </g>
    </g>
</svg>